<?xml version="1.0" encoding="iso-8859-1"?>
<!-- Uploaded to: SVG Repo, www.svgrepo.com, Generator: SVG Repo Mixer Tools -->
<!DOCTYPE svg PUBLIC "-//W3C//DTD SVG 1.1//EN" "http://www.w3.org/Graphics/SVG/1.1/DTD/svg11.dtd">
<svg fill="#000000" version="1.1" id="Capa_1" xmlns="http://www.w3.org/2000/svg" xmlns:xlink="http://www.w3.org/1999/xlink" 
	 width="800px" height="800px" viewBox="0 0 440.624 440.624"
	 xml:space="preserve">
<g>
	<path d="M428.153,85.991H12.471C5.587,85.991,0,91.578,0,98.462v243.7c0,6.881,5.587,12.471,12.471,12.471h415.682
		c6.881,0,12.471-5.59,12.471-12.471v-243.7C440.624,91.578,435.045,85.991,428.153,85.991z M121.768,315.681l-49.115-34.447
		l49.115-34.445V315.681z M166.085,315.681v-68.899l49.115,34.44L166.085,315.681z M366.841,286.562
		c-13.201,0-23.906-10.698-23.906-23.899s10.705-23.906,23.906-23.906s23.906,10.705,23.906,23.906S380.042,286.562,366.841,286.562
		z M304.58,325.015c-13.201,0-23.906-10.698-23.906-23.899s10.705-23.906,23.906-23.906s23.906,10.705,23.906,23.906
		S317.781,325.015,304.58,325.015z M398.018,191.474c0,6.884-5.584,12.471-12.471,12.471H48.841
		c-6.884,0-12.471-5.587-12.471-12.471V133.28c0-6.884,5.587-12.471,12.471-12.471h336.706c6.887,0,12.471,5.587,12.471,12.471
		V191.474z"/>
</g>
</svg>